<svg xmlns="http://www.w3.org/2000/svg" width="86.356" height="69.085" viewBox="0 0 86.356 69.085"><defs><style>.a{fill:#fff;}</style></defs><g transform="translate(0 -48)"><g transform="translate(14.393 53.757)"><g transform="translate(0 0)"><path class="a" d="M108.785,80a28.785,28.785,0,1,0,28.785,28.785A28.785,28.785,0,0,0,108.785,80Zm0,54.692a25.907,25.907,0,1,1,25.907-25.907A25.907,25.907,0,0,1,108.785,134.692Z" transform="translate(-80 -80)"/></g></g><g transform="translate(74.842 48.002)"><g transform="translate(0 0)"><path class="a" d="M425.33,48.284a3.524,3.524,0,0,0-3.851.766A18.593,18.593,0,0,0,416,62.281V81.114a4.318,4.318,0,0,0,2.879,4.053v27.611a4.318,4.318,0,1,0,8.636,0V51.55A3.523,3.523,0,0,0,425.33,48.284Zm-.7,64.494a1.439,1.439,0,1,1-2.879,0V85.431h2.879Zm0-30.225h-4.318a1.439,1.439,0,0,1-1.439-1.439V62.281a15.733,15.733,0,0,1,4.637-11.195.622.622,0,0,1,.448-.2.706.706,0,0,1,.268.056.626.626,0,0,1,.4.606Z" transform="translate(-416 -48.013)"/></g></g><g transform="translate(25.907 72.468)"><g transform="translate(0 0)"><path class="a" d="M149.757,184a5.757,5.757,0,1,0,5.757,5.757A5.757,5.757,0,0,0,149.757,184Zm0,8.636a2.879,2.879,0,1,1,2.879-2.879A2.878,2.878,0,0,1,149.757,192.636Z" transform="translate(-144 -184)"/></g></g><g transform="translate(20.15 65.271)"><g transform="translate(0 0)"><path class="a" d="M135.152,152.164l-2.53-2.53a1.6,1.6,0,0,1-.472-1.141A4.5,4.5,0,0,0,127.658,144H121.9a4.521,4.521,0,0,0-3.176,1.315l-5.409,5.409A4.462,4.462,0,0,0,112,153.9v6.105a4.462,4.462,0,0,0,1.315,3.176l2.53,2.53a1.6,1.6,0,0,1,.472,1.141,4.5,4.5,0,0,0,4.492,4.492h2.879a4.521,4.521,0,0,0,3.176-1.316l3.97-3.969a1.628,1.628,0,0,1,1.141-.472,4.5,4.5,0,0,0,4.492-4.492V155.34A4.462,4.462,0,0,0,135.152,152.164Zm-1.563,8.934a1.615,1.615,0,0,1-1.613,1.613,4.52,4.52,0,0,0-3.176,1.315L124.83,168a1.628,1.628,0,0,1-1.141.472H120.81a1.615,1.615,0,0,1-1.613-1.613,4.462,4.462,0,0,0-1.315-3.176l-2.53-2.53a1.6,1.6,0,0,1-.472-1.141V153.9a1.6,1.6,0,0,1,.472-1.141l5.409-5.409a1.628,1.628,0,0,1,1.141-.472h5.757a1.615,1.615,0,0,1,1.613,1.613,4.462,4.462,0,0,0,1.315,3.176l2.53,2.53a1.6,1.6,0,0,1,.472,1.141Z" transform="translate(-112 -144)"/></g></g><g transform="translate(31.664 79.664)"><path class="a" d="M201.487,230.18l-5.757-5.757a1.439,1.439,0,0,0-2.457,1.018v2.879a1.439,1.439,0,0,1-1.439,1.439,4.318,4.318,0,0,0-4.318,4.318,1.439,1.439,0,0,1-1.439,1.439,4.318,4.318,0,0,0-4.318,4.318,1.439,1.439,0,0,1-1.439,1.439h-2.879a1.439,1.439,0,0,0-1.018,2.457l5.757,5.757a1.439,1.439,0,0,0,1.018.422h2.879a4.318,4.318,0,0,0,4.318-4.318,1.439,1.439,0,0,1,1.439-1.439,4.318,4.318,0,0,0,4.318-4.318,1.439,1.439,0,0,1,1.439-1.439,4.318,4.318,0,0,0,4.318-4.318V231.2A1.439,1.439,0,0,0,201.487,230.18Zm-2.457,3.9a1.439,1.439,0,0,1-1.439,1.439,4.318,4.318,0,0,0-4.318,4.318,1.439,1.439,0,0,1-1.439,1.439,4.318,4.318,0,0,0-4.318,4.318,1.439,1.439,0,0,1-1.439,1.439h-2.283l-2.915-2.915a4.318,4.318,0,0,0,3.758-4.282,1.439,1.439,0,0,1,1.439-1.439,4.318,4.318,0,0,0,4.318-4.318,1.439,1.439,0,0,1,1.439-1.439,4.318,4.318,0,0,0,4.282-3.758l2.915,2.915Z" transform="translate(-176.002 -224.002)"/></g><g transform="translate(41.739 59.516)"><path class="a" d="M254.856,127.068l-.248-.246-7.2-7.2-6-6a5.51,5.51,0,0,0-7.791,7.794l.248.246,7.2,7.2,6,6a5.51,5.51,0,0,0,7.791-7.794ZM235.827,115.5a2.632,2.632,0,0,1,1.678-.61h.006a2.654,2.654,0,0,1,1.861.77l3.548,3.548h-7.43A2.632,2.632,0,0,1,235.827,115.5Zm2.527,6.586H245.8l4.318,4.318h-7.444Zm14.289,10.9a2.632,2.632,0,0,1-1.678.61h-.006a2.651,2.651,0,0,1-1.861-.771l-3.548-3.546h7.43A2.632,2.632,0,0,1,252.644,132.987Z" transform="translate(-232.002 -112.01)"/></g><g transform="translate(0 48)"><path class="a" d="M11.514,48V59.514H8.636V48H5.757V59.514H2.879V48H0V66.711a7.166,7.166,0,0,0,2.879,5.72v40.337a4.318,4.318,0,0,0,8.636,0V72.43a7.166,7.166,0,0,0,2.879-5.72V48ZM8.636,112.767a1.439,1.439,0,0,1-2.879,0V73.907H8.636Zm2.879-46.057a4.318,4.318,0,0,1-8.636,0V62.393h8.636Z" transform="translate(0 -48)"/></g></g></svg>