<svg xmlns="http://www.w3.org/2000/svg" xmlns:xlink="http://www.w3.org/1999/xlink" width="101.963" height="101.977" viewBox="0 0 101.963 101.977"><defs><style>.a{stroke:#fff;stroke-width:2px;fill:url(#a);}</style><linearGradient id="a" x1="0.5" x2="0.5" y2="1" gradientUnits="objectBoundingBox"><stop offset="0" stop-color="#ff4b2b"/><stop offset="1" stop-color="#ff416c"/></linearGradient></defs><path class="a" d="M26.671,81.624a6.261,6.261,0,0,1-6.257-6.253V68.732a4.3,4.3,0,0,0-4.3-4.3A15.637,15.637,0,0,1,.5,48.817v-33.2A15.637,15.637,0,0,1,16.119,0H69.224A15.637,15.637,0,0,1,84.843,15.619v33.2A15.637,15.637,0,0,1,69.224,64.436H52.359a14.2,14.2,0,0,0-10.11,4.188L31.083,79.79a6.234,6.234,0,0,1-4.413,1.834ZM16.119,7.81a7.818,7.818,0,0,0-7.809,7.809v33.2a7.818,7.818,0,0,0,7.809,7.81,12.118,12.118,0,0,1,12.1,12.105V71.6l8.5-8.5a21.962,21.962,0,0,1,15.632-6.475H69.224a7.819,7.819,0,0,0,7.81-7.81v-33.2a7.818,7.818,0,0,0-7.81-7.809ZM76.69,99.5a6.232,6.232,0,0,0,3.858-5.774V87.084a4.3,4.3,0,0,1,4.3-4.3A15.637,15.637,0,0,0,100.462,67.17V26.162a3.9,3.9,0,1,0-7.809,0V67.17a7.819,7.819,0,0,1-7.81,7.81,12.118,12.118,0,0,0-12.105,12.1v2.873l-8.5-8.5A21.964,21.964,0,0,0,48.6,74.98H45.4a3.9,3.9,0,1,0,0,7.809h3.2a14.2,14.2,0,0,1,10.11,4.188L69.879,98.143A6.231,6.231,0,0,0,76.69,99.5ZM46.772,32.417a3.9,3.9,0,1,0-3.9,3.9A3.9,3.9,0,0,0,46.772,32.417Zm15.619,0a3.9,3.9,0,1,0-3.9,3.9A3.9,3.9,0,0,0,62.391,32.417Zm-31.238,0a3.9,3.9,0,1,0-3.905,3.9A3.9,3.9,0,0,0,31.152,32.417Zm0,0" transform="translate(0.5 1)"/></svg>