<svg xmlns="http://www.w3.org/2000/svg" xmlns:xlink="http://www.w3.org/1999/xlink" width="56" height="56" viewBox="0 0 56 56"><defs><style>.a{fill:url(#a);}</style><linearGradient id="a" x1="0.5" x2="0.5" y2="1" gradientUnits="objectBoundingBox"><stop offset="0" stop-color="#ff4b2b"/><stop offset="1" stop-color="#ff416c"/></linearGradient></defs><path class="a" d="M56,28a27.891,27.891,0,0,1-4.744,15.544,2.188,2.188,0,0,1-3.637-2.432,23.586,23.586,0,0,0,3.9-10.925H49.547a2.187,2.187,0,0,1,0-4.375h1.976A23.664,23.664,0,0,0,30.078,4.467V6.344a2.187,2.187,0,0,1-4.375,0V4.487A23.666,23.666,0,0,0,4.477,25.813H6.234a2.187,2.187,0,1,1,0,4.375H4.477A23.666,23.666,0,0,0,25.7,51.513V49.656a2.187,2.187,0,0,1,4.375,0v1.877a23.548,23.548,0,0,0,10.143-3.311,2.187,2.187,0,1,1,2.267,3.742A28,28,0,1,1,56,28ZM40.039,15.945a2.188,2.188,0,0,1,.5,2.338L31.9,40.814a2.188,2.188,0,0,1-2.043,1.4h-.021a2.205,2.205,0,0,1-2.067-1.524l-3.329-8.812L15.3,28.4a2.187,2.187,0,0,1-.026-4.079L37.7,15.465a2.188,2.188,0,0,1,2.343.48Zm-5.363,5.418L22.129,26.321l4.789,1.822a2.186,2.186,0,0,1,1.269,1.271l1.688,4.468Zm0,0" transform="translate(0 0)"/></svg>