<svg xmlns="http://www.w3.org/2000/svg" width="35.979" height="35.979" viewBox="0 0 35.979 35.979"><defs><style>.a{fill:#fff;}</style></defs><path class="a" d="M35.979,14.758a14.76,14.76,0,0,1-1.931,7.3,1.405,1.405,0,1,1-2.441-1.393,11.94,11.94,0,1,0-4.539,4.511,1.405,1.405,0,1,1,1.378,2.45,14.747,14.747,0,0,1-16.578-1.465L2.4,35.571A1.405,1.405,0,0,1,.416,33.577l9.46-9.4a14.754,14.754,0,1,1,26.1-9.424Zm-5.315-.6a1.406,1.406,0,0,1,0,1.616c-.049.07-.219.31-.324.443a19.784,19.784,0,0,1-3.105,3.2,9.638,9.638,0,0,1-6.012,2.364A9.638,9.638,0,0,1,15.21,19.42a19.765,19.765,0,0,1-3.106-3.2c-.105-.133-.275-.372-.324-.443a1.406,1.406,0,0,1,0-1.616c.049-.07.219-.31.324-.442a19.765,19.765,0,0,1,3.106-3.2,9.637,9.637,0,0,1,6.012-2.364,9.638,9.638,0,0,1,6.012,2.364,19.76,19.76,0,0,1,3.105,3.2c.105.133.275.372.324.442Zm-2.932.808c-2.235-2.658-4.423-4.005-6.51-4.005s-4.275,1.347-6.51,4.005c2.235,2.658,4.423,4.005,6.51,4.005S25.5,17.627,27.733,14.968Zm-6.44-2.67a2.67,2.67,0,1,0,2.67,2.67A2.67,2.67,0,0,0,21.293,12.3Zm0,0" transform="translate(-0.001 -0.001)"/></svg>