<svg xmlns="http://www.w3.org/2000/svg" width="40" height="40" viewBox="0 0 40 40"><defs><style>.a{fill:#1776d2;}</style></defs><path class="a" d="M291.394,508.668q-.269.044-.539.081Q291.126,508.712,291.394,508.668Zm0,0" transform="translate(-268.154 -468.948)"/><path class="a" d="M299.6,507.793l-.257.045Zm0,0" transform="translate(-275.964 -468.146)"/><path class="a" d="M278.242,510.34q-.314.035-.632.062Q277.927,510.376,278.242,510.34Zm0,0" transform="translate(-255.946 -470.479)"/><path class="a" d="M286.749,509.738l-.3.038Zm0,0" transform="translate(-264.079 -469.928)"/><path class="a" d="M306.891,506.41l-.227.048Zm0,0" transform="translate(-282.715 -466.879)"/><path class="a" d="M324.667,502.113l-.183.051Zm0,0" transform="translate(-299.142 -462.943)"/><path class="a" d="M319.258,503.543l-.2.052Zm0,0" transform="translate(-294.141 -464.253)"/><path class="a" d="M312.278,505.254l-.212.048Zm0,0" transform="translate(-287.695 -465.821)"/><path class="a" d="M273.82,511.09q-.17.014-.34.026Q273.65,511.1,273.82,511.09Zm0,0" transform="translate(-252.127 -471.166)"/><path class="a" d="M40,20A20,20,0,1,0,20,40c.117,0,.234,0,.352,0V24.426h-4.3V19.419h4.3V15.734c0-4.274,2.609-6.6,6.421-6.6a35.371,35.371,0,0,1,3.852.2V13.8H28c-2.074,0-2.476.986-2.476,2.432v3.189H30.48l-.646,5.008H25.521v14.8A20.011,20.011,0,0,0,40,20Zm0,0"/><path class="a" d="M265.564,511.43q-.336.022-.674.033Q265.229,511.452,265.564,511.43Zm0,0" transform="translate(-244.221 -471.478)"/><path class="a" d="M260.861,511.836l-.357.009Zm0,0" transform="translate(-240.165 -471.85)"/></svg>