<svg xmlns="http://www.w3.org/2000/svg" xmlns:xlink="http://www.w3.org/1999/xlink" width="102.976" height="102.977" viewBox="0 0 102.976 102.977"><defs><style>.a{stroke:#fff;stroke-width:3px;fill:url(#a);}</style><linearGradient id="a" x1="0.5" x2="0.5" y2="1" gradientUnits="objectBoundingBox"><stop offset="0" stop-color="#ff4b2b"/><stop offset="1" stop-color="#ff416c"/></linearGradient></defs><path class="a" d="M99.976,11.826V34.272A11.839,11.839,0,0,1,88.151,46.1a1.64,1.64,0,0,0-1.638,1.638V52.5a5.489,5.489,0,0,1-9.374,3.882l-.049-.05-7.524-7.8a6.656,6.656,0,0,0-2.455-1.746,3.905,3.905,0,0,1,2.856-7.27,14.451,14.451,0,0,1,5.146,3.516l.049.05L78.747,46.8a9.463,9.463,0,0,1,9.4-8.515,4.019,4.019,0,0,0,4.015-4.014V11.826a4.019,4.019,0,0,0-4.015-4.015H70.686a3.905,3.905,0,0,1,0-7.811H88.151A11.839,11.839,0,0,1,99.976,11.826ZM29.68,27.533a3.905,3.905,0,1,0-3.905-3.905A3.905,3.905,0,0,0,29.68,27.533Zm13.669,0a3.905,3.905,0,1,0-3.905-3.905A3.905,3.905,0,0,0,43.349,27.533Zm-27.142,0A3.905,3.905,0,1,0,12.3,23.627,3.905,3.905,0,0,0,16.207,27.533ZM99.976,94.358v1.713a3.905,3.905,0,1,1-7.811,0V94.358a2.712,2.712,0,0,0-.89-2.028,16.256,16.256,0,0,0-21.066,0,2.712,2.712,0,0,0-.89,2.028v1.713a3.905,3.905,0,0,1-7.811,0V94.358a2.7,2.7,0,0,0-.895-2.02,15.678,15.678,0,0,0-10.626-3.882,15.674,15.674,0,0,0-10.625,3.882,2.694,2.694,0,0,0-.9,2.02v1.713a3.905,3.905,0,0,1-7.811,0V94.358a2.712,2.712,0,0,0-.89-2.028,15.487,15.487,0,0,0-10.533-3.874A15.488,15.488,0,0,0,8.7,92.33a2.712,2.712,0,0,0-.89,2.028v1.713a3.905,3.905,0,0,1-7.811,0V94.358A10.526,10.526,0,0,1,3.5,86.5,22.945,22.945,0,0,1,9.428,82.67a11.716,11.716,0,1,1,20.07.211,22.941,22.941,0,0,1,5.071,3.276,23.111,23.111,0,0,1,5.369-3.4,11.716,11.716,0,1,1,20.1,0,23.111,23.111,0,0,1,5.369,3.4,22.941,22.941,0,0,1,5.375-3.417,11.715,11.715,0,1,1,20.077.07A22.95,22.95,0,0,1,96.475,86.5a10.527,10.527,0,0,1,3.5,7.857ZM15.621,76.74a3.905,3.905,0,1,0,3.905-3.905A3.91,3.91,0,0,0,15.621,76.74Zm34.367,3.905a3.905,3.905,0,1,0-3.905-3.905A3.91,3.91,0,0,0,49.988,80.645ZM76.935,76.74a3.905,3.905,0,1,0,3.905-3.905A3.91,3.91,0,0,0,76.935,76.74ZM0,34.272V11.826A11.839,11.839,0,0,1,11.826,0h35.9A11.839,11.839,0,0,1,59.556,11.826V34.272A11.839,11.839,0,0,1,47.73,46.1h-11.4a8.348,8.348,0,0,0-5.918,2.438l-7.523,7.8-.049.05A5.491,5.491,0,0,1,13.464,52.5V47.737A1.64,1.64,0,0,0,11.826,46.1,11.84,11.84,0,0,1,0,34.272Zm7.811,0a4.02,4.02,0,0,0,4.015,4.015,9.462,9.462,0,0,1,9.4,8.515l3.586-3.717.05-.05a16.105,16.105,0,0,1,11.464-4.748h11.4a4.02,4.02,0,0,0,4.015-4.015V11.826A4.019,4.019,0,0,0,47.73,7.811h-35.9a4.019,4.019,0,0,0-4.015,4.015Zm0,0" transform="translate(1.5 1.5)"/></svg>