<svg xmlns="http://www.w3.org/2000/svg" width="101.5" height="94.454" viewBox="0 0 101.5 94.454"><defs><style>.a{fill:#fff;}</style></defs><g transform="translate(0.001 0)"><path class="a" d="M330.982,183.965A1.982,1.982,0,1,0,329,181.982,1.983,1.983,0,0,0,330.982,183.965Zm0,0" transform="translate(-263.779 -144.316)"/><path class="a" d="M64.982,43.965A1.982,1.982,0,1,0,63,41.982,1.983,1.983,0,0,0,64.982,43.965Zm0,0" transform="translate(-50.511 -32.07)"/><path class="a" d="M23.421,64.615l3,1.289a9.965,9.965,0,0,0,7.81,0l3-1.288a39.248,39.248,0,0,0,3.926-1.954A38.4,38.4,0,0,0,64.259,92.369l3,1.289a9.966,9.966,0,0,0,7.81,0l3-1.288C92.039,86.387,101.5,72.715,101.5,57.75V33.7a5.954,5.954,0,0,0-5.947-5.947H60.661V5.948A5.954,5.954,0,0,0,54.714,0H5.946A5.954,5.954,0,0,0,0,5.948V30C0,44.98,9.478,58.641,23.421,64.615ZM97.534,33.7V57.75c0,13.14-8.447,25.588-21.02,30.975l-3,1.289a5.983,5.983,0,0,1-4.687,0l-3-1.289C53.944,83.635,45.828,72.539,44.9,60.254A39.342,39.342,0,0,0,52.322,53.2a9.909,9.909,0,0,0,12.914-.168,1.983,1.983,0,1,0-2.624-2.973,5.95,5.95,0,0,1-7.868,0c-.029-.026-.06-.048-.09-.072a36.777,36.777,0,0,0,5.96-18.266H95.552A1.984,1.984,0,0,1,97.534,33.7ZM3.964,5.948A1.984,1.984,0,0,1,5.947,3.965H54.714A1.984,1.984,0,0,1,56.7,5.948V30c0,13.538-8.626,25.665-21.02,30.975l-3,1.289a5.983,5.983,0,0,1-4.687,0l-3-1.289C12.411,55.584,3.964,43.136,3.964,30Zm0,0"/><path class="a" d="M108.771,180H84.982A1.982,1.982,0,0,0,83,181.982a13.877,13.877,0,0,0,27.754,0A1.982,1.982,0,0,0,108.771,180ZM96.877,191.895a9.932,9.932,0,0,1-9.713-7.932H106.59A9.932,9.932,0,0,1,96.877,191.895Zm0,0" transform="translate(-66.547 -144.316)"/><path class="a" d="M63.77,103.965a5.941,5.941,0,0,1,3.934,1.487,1.983,1.983,0,1,0,2.624-2.973,9.912,9.912,0,0,0-13.114,0,1.982,1.982,0,1,0,2.623,2.973,5.941,5.941,0,0,1,3.934-1.487Zm0,0" transform="translate(-45.334 -80.175)"/><path class="a" d="M177.211,102.478a1.982,1.982,0,1,0,2.623,2.973,5.95,5.95,0,0,1,7.868,0,1.983,1.983,0,1,0,2.624-2.973,9.914,9.914,0,0,0-13.114,0Zm0,0" transform="translate(-141.543 -80.176)"/><path class="a" d="M104.982,43.965h23.789a1.982,1.982,0,0,0,0-3.965H104.982a1.982,1.982,0,0,0,0,3.965Zm0,0" transform="translate(-82.582 -32.07)"/><path class="a" d="M289,333.877a1.982,1.982,0,0,0,1.982,1.982h23.789a1.982,1.982,0,0,0,1.982-1.982,13.877,13.877,0,0,0-27.754,0Zm13.877-9.912a9.93,9.93,0,0,1,9.713,7.93H293.164A9.93,9.93,0,0,1,302.877,323.965Zm0,0" transform="translate(-231.709 -256.562)"/><path class="a" d="M393.7,250.5a5.948,5.948,0,0,1-7.868,0,1.982,1.982,0,0,0-2.623,2.973,9.911,9.911,0,0,0,13.113,0A1.982,1.982,0,1,0,393.7,250.5Zm0,0" transform="translate(-306.705 -200.439)"/><path class="a" d="M370.982,183.965h11.895a1.982,1.982,0,0,0,0-3.965H370.982a1.982,1.982,0,0,0,0,3.965Zm0,0" transform="translate(-295.849 -144.316)"/></g></svg>