<svg xmlns="http://www.w3.org/2000/svg" xmlns:xlink="http://www.w3.org/1999/xlink" width="95.146" height="96.773" viewBox="0 0 95.146 96.773"><defs><style>.a{fill:url(#a);}</style><linearGradient id="a" x1="0.5" x2="0.5" y2="1" gradientUnits="objectBoundingBox"><stop offset="0" stop-color="#ff4b2b"/><stop offset="1" stop-color="#ff416c"/></linearGradient></defs><g transform="translate(0.001)"><path class="a" d="M92.808,82.909,66.117,55.065a35.733,35.733,0,1,0-23.26,15.981,3.259,3.259,0,1,0-1.268-6.394,29.348,29.348,0,1,1,23.62-28.787,29.274,29.274,0,0,1-11.74,23.479c-.046.035-.066.087-.11.124s-.109.052-.156.1a3.013,3.013,0,0,0-.289.4,3.18,3.18,0,0,0-.363.506,3.1,3.1,0,0,0-.207.6,3.194,3.194,0,0,0-.137.59,3.285,3.285,0,0,0,.032.619,3.152,3.152,0,0,0,.1.614,3.2,3.2,0,0,0,.274.573,3.086,3.086,0,0,0,.21.441c.037.05.094.072.134.119s.048.1.087.142L81.23,94.388A8.152,8.152,0,0,0,92.808,82.909Zm-4.66,6.868a1.614,1.614,0,0,1-2.227.083L60.145,62.227q1.009-.932,1.944-1.938L88.147,87.471a1.629,1.629,0,0,1,0,2.305Zm0,0" transform="translate(0)"/><path class="a" d="M175.76,136.1a3.259,3.259,0,0,1-3.26-3.26V106.76a3.26,3.26,0,1,1,6.521,0v26.083A3.259,3.259,0,0,1,175.76,136.1Zm0,0" transform="translate(-139.896 -83.938)"/><path class="a" d="M132.844,179.021H106.76a3.26,3.26,0,1,1,0-6.521h26.083a3.26,3.26,0,1,1,0,6.521Zm0,0" transform="translate(-83.938 -139.896)"/></g></svg>