<svg xmlns="http://www.w3.org/2000/svg" width="94" height="94" viewBox="0 0 94 94"><defs><style>.a{fill:#fff;}</style></defs><g transform="translate(81.467 18.8)"><path class="a" d="M450,102.4a6.267,6.267,0,1,0,6.267,6.267A6.273,6.273,0,0,0,450,102.4Zm0,9.4a3.133,3.133,0,1,1,3.133-3.133A3.137,3.137,0,0,1,450,111.8Z" transform="translate(-443.734 -102.4)"/></g><g transform="translate(0 70.5)"><path class="a" d="M6.267,384a6.267,6.267,0,1,0,6.267,6.267A6.273,6.273,0,0,0,6.267,384Zm0,9.4A3.133,3.133,0,1,1,9.4,390.267,3.137,3.137,0,0,1,6.267,393.4Z" transform="translate(0 -384)"/></g><g transform="translate(68.932 14.098)"><path class="a" d="M391.226,83.473,377.71,76.948a1.566,1.566,0,1,0-1.361,2.822L389.864,86.3a1.566,1.566,0,0,0,1.361-2.822Z" transform="translate(-375.463 -76.792)"/></g><g transform="translate(64.233 81.466)"><path class="a" d="M356.134,443.733A6.267,6.267,0,1,0,362.4,450,6.273,6.273,0,0,0,356.134,443.733Zm0,9.4A3.133,3.133,0,1,1,359.267,450,3.137,3.137,0,0,1,356.134,453.133Z" transform="translate(-349.867 -443.733)"/></g><g transform="translate(51.699 76.765)"><path class="a" d="M297.359,424.806l-13.516-6.525a1.566,1.566,0,1,0-1.361,2.822L296,427.628a1.566,1.566,0,0,0,1.361-2.822Z" transform="translate(-281.596 -418.124)"/></g><g transform="translate(40.733 42.3)"><path class="a" d="M228.134,230.4a6.267,6.267,0,1,0,6.267,6.267A6.273,6.273,0,0,0,228.134,230.4Zm0,9.4a3.133,3.133,0,1,1,3.133-3.133A3.137,3.137,0,0,1,228.134,239.8Z" transform="translate(-221.867 -230.4)"/></g><g transform="translate(31.333 36.034)"><path class="a" d="M183.577,204.693,173.2,196.6a1.567,1.567,0,0,0-1.927,2.472l10.382,8.092a1.567,1.567,0,1,0,1.927-2.472Z" transform="translate(-170.664 -196.272)"/></g><g transform="translate(57.967 40.733)"><path class="a" d="M332.966,221.867A17.233,17.233,0,1,0,350.2,239.1,17.254,17.254,0,0,0,332.966,221.867Zm0,31.333a14.1,14.1,0,1,1,14.1-14.1A14.115,14.115,0,0,1,332.966,253.2Z" transform="translate(-315.733 -221.867)"/></g><g transform="translate(68.933 47)"><path class="a" d="M381.734,256A6.267,6.267,0,1,0,388,262.267,6.273,6.273,0,0,0,381.734,256Zm0,9.4a3.133,3.133,0,1,1,3.133-3.133A3.137,3.137,0,0,1,381.734,265.4Z" transform="translate(-375.467 -256)"/></g><g transform="translate(65.8 62.667)"><path class="a" d="M372.345,341.333h-9.09a4.8,4.8,0,0,0-4.855,4.724v4.13a1.568,1.568,0,0,0,.782,1.357,17.146,17.146,0,0,0,17.236,0,1.565,1.565,0,0,0,.782-1.355v-4.13A4.8,4.8,0,0,0,372.345,341.333Zm1.722,7.919a14.206,14.206,0,0,1-12.533,0v-3.194a1.663,1.663,0,0,1,1.722-1.592h9.09a1.663,1.663,0,0,1,1.722,1.592v3.194Z" transform="translate(-358.4 -341.333)"/></g><g transform="translate(20.367 59.533)"><path class="a" d="M128.166,324.267A17.233,17.233,0,1,0,145.4,341.5,17.254,17.254,0,0,0,128.166,324.267Zm0,31.333a14.1,14.1,0,1,1,14.1-14.1A14.115,14.115,0,0,1,128.166,355.6Z" transform="translate(-110.933 -324.267)"/></g><g transform="translate(31.333 65.8)"><path class="a" d="M176.934,358.4a6.267,6.267,0,1,0,6.267,6.267A6.273,6.273,0,0,0,176.934,358.4Zm0,9.4a3.133,3.133,0,1,1,3.133-3.133A3.137,3.137,0,0,1,176.934,367.8Z" transform="translate(-170.667 -358.4)"/></g><g transform="translate(28.2 81.466)"><path class="a" d="M167.545,443.733h-9.09a4.8,4.8,0,0,0-4.855,4.723v4.13a1.568,1.568,0,0,0,.782,1.357,17.146,17.146,0,0,0,17.236,0,1.565,1.565,0,0,0,.782-1.355v-4.13A4.8,4.8,0,0,0,167.545,443.733Zm1.722,7.919a14.206,14.206,0,0,1-12.533,0v-3.194a1.663,1.663,0,0,1,1.722-1.592h9.09a1.663,1.663,0,0,1,1.722,1.592v3.194Z" transform="translate(-153.6 -443.733)"/></g><g transform="translate(0 20.367)"><path class="a" d="M17.233,110.933a17.233,17.233,0,1,0,17.233,17.233A17.254,17.254,0,0,0,17.233,110.933Zm0,31.333a14.1,14.1,0,1,1,14.1-14.1A14.115,14.115,0,0,1,17.233,142.266Z" transform="translate(0 -110.933)"/></g><g transform="translate(10.967 26.633)"><path class="a" d="M66,145.067a6.267,6.267,0,1,0,6.267,6.267A6.273,6.273,0,0,0,66,145.067Zm0,9.4a3.133,3.133,0,1,1,3.133-3.133A3.137,3.137,0,0,1,66,154.467Z" transform="translate(-59.734 -145.067)"/></g><g transform="translate(7.833 42.3)"><path class="a" d="M56.612,230.4h-9.09a4.8,4.8,0,0,0-4.855,4.723v4.13a1.568,1.568,0,0,0,.782,1.357,17.146,17.146,0,0,0,17.236,0,1.565,1.565,0,0,0,.782-1.355v-4.13A4.8,4.8,0,0,0,56.612,230.4Zm1.722,7.919a14.206,14.206,0,0,1-12.533,0v-3.194a1.663,1.663,0,0,1,1.722-1.592h9.09a1.663,1.663,0,0,1,1.722,1.592v3.194Z" transform="translate(-42.667 -230.4)"/></g><g transform="translate(37.6)"><path class="a" d="M222.033,0a17.233,17.233,0,1,0,17.233,17.233A17.254,17.254,0,0,0,222.033,0Zm0,31.333a14.1,14.1,0,1,1,14.1-14.1A14.115,14.115,0,0,1,222.033,31.333Z" transform="translate(-204.8)"/></g><g transform="translate(48.567 6.267)"><path class="a" d="M270.8,34.133a6.267,6.267,0,1,0,6.267,6.267A6.273,6.273,0,0,0,270.8,34.133Zm0,9.4a3.133,3.133,0,1,1,3.133-3.133A3.137,3.137,0,0,1,270.8,43.533Z" transform="translate(-264.534 -34.133)"/></g><g transform="translate(45.433 21.933)"><path class="a" d="M261.412,119.467h-9.09a4.8,4.8,0,0,0-4.855,4.723v4.13a1.568,1.568,0,0,0,.782,1.357,17.146,17.146,0,0,0,17.236,0,1.565,1.565,0,0,0,.782-1.355v-4.13A4.8,4.8,0,0,0,261.412,119.467Zm1.722,7.919a14.206,14.206,0,0,1-12.533,0v-3.194a1.663,1.663,0,0,1,1.722-1.592h9.09a1.663,1.663,0,0,1,1.722,1.592v3.194Z" transform="translate(-247.467 -119.467)"/></g><g transform="translate(26.744 15.667)"><path class="a" d="M159.286,85.88a1.569,1.569,0,0,0-2.209-.171L146.22,95a1.566,1.566,0,1,0,2.037,2.38l10.857-9.29A1.566,1.566,0,0,0,159.286,85.88Z" transform="translate(-145.671 -85.333)"/></g><g transform="translate(62.667 28.202)"><path class="a" d="M353.553,166.77l-9.4-12.533a1.566,1.566,0,0,0-2.507,1.878l9.4,12.533a1.566,1.566,0,0,0,2.507-1.878Z" transform="translate(-341.333 -153.61)"/></g><g transform="translate(50.458 62.521)"><path class="a" d="M286.4,341.167a1.567,1.567,0,0,0-2.193-.313l-8.751,6.563a1.566,1.566,0,0,0,1.88,2.5l8.751-6.563A1.565,1.565,0,0,0,286.4,341.167Z" transform="translate(-274.833 -340.54)"/></g><g transform="translate(9.4 75.2)"><path class="a" d="M63.733,409.6H52.767a1.567,1.567,0,1,0,0,3.133H63.733a1.567,1.567,0,0,0,0-3.133Z" transform="translate(-51.2 -409.6)"/></g><g transform="translate(10.967)"><path class="a" d="M66,0a6.267,6.267,0,1,0,6.266,6.267A6.273,6.273,0,0,0,66,0Zm0,9.4a3.133,3.133,0,1,1,3.133-3.133A3.137,3.137,0,0,1,66,9.4Z" transform="translate(-59.733)"/></g><g transform="translate(15.667 9.4)"><path class="a" d="M86.9,51.2a1.566,1.566,0,0,0-1.567,1.567V63.733a1.567,1.567,0,0,0,3.133,0V52.767A1.566,1.566,0,0,0,86.9,51.2Z" transform="translate(-85.334 -51.2)"/></g></svg>