<svg xmlns="http://www.w3.org/2000/svg" width="75.566" height="106" viewBox="0 0 75.566 106"><defs><style>.a{fill:#fff;}</style></defs><g transform="translate(-73.5)"><path class="a" d="M147.514,76.34a1.553,1.553,0,0,0,1.553-1.553V3.623A3.627,3.627,0,0,0,145.443,0H90.373a1.553,1.553,0,0,0,0,3.105h55.07a.518.518,0,0,1,.518.518V18.858A57.584,57.584,0,0,0,111.283,7.7a57.585,57.585,0,0,0-34.678,11.16V3.623a.518.518,0,0,1,.518-.518h6a1.553,1.553,0,0,0,0-3.105h-6A3.627,3.627,0,0,0,73.5,3.623v98.754A3.627,3.627,0,0,0,77.123,106h68.32a3.627,3.627,0,0,0,3.623-3.623V82.033a1.553,1.553,0,0,0-3.105,0v20.344a.518.518,0,0,1-.518.518H77.123a.518.518,0,0,1-.518-.518V22.817A54.05,54.05,0,0,1,111.283,10.8a54.049,54.049,0,0,1,34.678,12.014v51.97A1.553,1.553,0,0,0,147.514,76.34Z"/><path class="a" d="M204.293,411.72a1.553,1.553,0,0,0-1.553-1.553H169.307a1.553,1.553,0,1,0,0,3.105h33.434A1.553,1.553,0,0,0,204.293,411.72Z" transform="translate(-74.74 -325.25)"/><path class="a" d="M281.876,448.833a1.553,1.553,0,0,0,0,3.105h4.444a1.553,1.553,0,0,0,0-3.105Z" transform="translate(-164.004 -355.911)"/><path class="a" d="M196.765,448.833a1.553,1.553,0,1,0,0,3.105h10.411a1.553,1.553,0,1,0,0-3.105Z" transform="translate(-96.514 -355.911)"/><path class="a" d="M188.061,301.977a1.965,1.965,0,0,0-.147-3.468c-.887-.422-1.791-.88-2.7-1.37.531-.977.954-1.954,1.367-2.906.316-.729.643-1.482,1.012-2.22a1.964,1.964,0,0,0-2.733-2.581c-12.568,7.183-26.41,7.182-38.978,0a1.963,1.963,0,0,0-2.733,2.581c.369.737.7,1.49,1.011,2.219.413.953.836,1.93,1.367,2.906-.908.489-1.813.948-2.7,1.37a1.965,1.965,0,0,0-.147,3.469,44.774,44.774,0,0,0,45.382,0Zm-41.938-1.641q.969-.5,1.943-1.05a1.968,1.968,0,0,0,.693-2.775,20.531,20.531,0,0,1-1.447-2.819,40.5,40.5,0,0,0,36.118,0,20.536,20.536,0,0,1-1.447,2.82,1.968,1.968,0,0,0,.692,2.775q.973.546,1.943,1.05a41.674,41.674,0,0,1-38.495,0Z" transform="translate(-54.087 -229.302)"/><path class="a" d="M169.62,120.177a2.254,2.254,0,0,0-1.649,1.314l-10.712,24.538a2.981,2.981,0,0,0,2.722,4.171,2.99,2.99,0,0,0,1.2-.252l24.538-10.712a2.256,2.256,0,0,0,.693-3.663L171.634,120.8A2.253,2.253,0,0,0,169.62,120.177Zm-1.227,23.233a24.915,24.915,0,0,0-3.038-8.164l1.989-4.557a22.019,22.019,0,0,1,4.812,11.079Zm-8.156,3.561,3.522-8.069a22.038,22.038,0,0,1,1.7,5.79Zm14.868-6.49a25.1,25.1,0,0,0-6.388-12.936l1.6-3.67,13.014,13.014Z" transform="translate(-66.219 -95.265)"/><path class="a" d="M295.5,149.3a1.553,1.553,0,0,0,2.032.833,7.089,7.089,0,0,1,7.53,1.52,1.553,1.553,0,1,0,2.216-2.175,10.167,10.167,0,0,0-10.944-2.21A1.552,1.552,0,0,0,295.5,149.3Z" transform="translate(-175.945 -116.194)"/><path class="a" d="M251.649,79.576a1.551,1.551,0,0,0,2.032-.833A10.167,10.167,0,0,0,251.47,67.8a1.553,1.553,0,1,0-2.175,2.216,7.089,7.089,0,0,1,1.52,7.53,1.553,1.553,0,0,0,.833,2.032Z" transform="translate(-139.031 -53.409)"/><path class="a" d="M298.641,91.71a1.548,1.548,0,0,0,1.1-.455l5.655-5.655a1.553,1.553,0,1,0-2.2-2.2l-5.655,5.655a1.553,1.553,0,0,0,1.1,2.651Z" transform="translate(-177.299 -65.776)"/></g></svg>