<svg xmlns="http://www.w3.org/2000/svg" width="85.64" height="85.306" viewBox="0 0 85.64 85.306"><defs><style>.a{fill:#fff;}</style></defs><g transform="translate(-34 14)"><g transform="translate(34 -14)"><path class="a" d="M137.251,386.057v5.856a3.811,3.811,0,0,0,3.806,3.806H173.17a3.811,3.811,0,0,0,3.806-3.806v-5.856a3.808,3.808,0,0,0-3.806-3.8H141.057A3.808,3.808,0,0,0,137.251,386.057Zm36.38,0v5.856a.467.467,0,0,1-.461.461H141.057a.461.461,0,0,1-.461-.461v-5.856a.465.465,0,0,1,.461-.456H173.17A.465.465,0,0,1,173.631,386.057Z" transform="translate(-114.294 -318.484)"/><path class="a" d="M81.208,48.294h-.84V41.168a.776.776,0,0,0-.026-.271,1.662,1.662,0,0,0-.364-.786l-3.89-4.645a5.426,5.426,0,0,0-.44-6.353l-1.557-1.855a5.424,5.424,0,0,0-7.631-.675l0,0a5.421,5.421,0,0,0-.667,7.627l1.556,1.859a5.377,5.377,0,0,0,3.676,1.913q.245.022.487.022a5.377,5.377,0,0,0,2.014-.39l3.5,4.177v6.5H63.572c-.134-9.394-1.547-14.061-8.307-17.3L52.58,28.245A10.327,10.327,0,0,0,55.946,21.2V14.129a13.128,13.128,0,1,0-26.256,0V21.2a10.328,10.328,0,0,0,3.367,7.043l-2.686,2.745c-6.761,3.242-8.174,7.909-8.308,17.3H8.613v-6.5l3.5-4.177a5.381,5.381,0,0,0,2.015.39q.246,0,.493-.022a5.363,5.363,0,0,0,3.667-1.911l1.559-1.858a5.415,5.415,0,0,0-8.3-6.959L9.985,29.117a5.436,5.436,0,0,0-.435,6.347L5.658,40.111a1.664,1.664,0,0,0-.385.96c0,.026,0,.055,0,.087,0,.007,0,.013,0,.02s0,0,0,.007v7.109H4.432A4.437,4.437,0,0,0,0,52.726v2.883a4.437,4.437,0,0,0,4.432,4.432H6.48l6.073,23.774a2.843,2.843,0,0,0,2.8,2.491H70.289a2.855,2.855,0,0,0,2.8-2.487L79.16,60.041h2.049a4.437,4.437,0,0,0,4.432-4.432V52.726a4.437,4.437,0,0,0-4.432-4.432ZM72.827,34.179a2.079,2.079,0,0,1-2.915-.256l-1.558-1.862a2.064,2.064,0,0,1,1.769-3.386,2.045,2.045,0,0,1,1.4.729l1.559,1.857a2.073,2.073,0,0,1-.257,2.917ZM12.55,31.264l1.561-1.86a2.052,2.052,0,0,1,1.4-.728q.094-.008.188-.008a2.071,2.071,0,0,1,1.581,3.4l-1.563,1.862a2.078,2.078,0,0,1-2.912.256,2.08,2.08,0,0,1-.259-2.917ZM42.818,4.345A9.794,9.794,0,0,1,52.6,14.129v1.255a30.351,30.351,0,0,1-8.582-2.3A18.911,18.911,0,0,0,37.493,11.4a7.276,7.276,0,0,0-4.373,1.431,9.8,9.8,0,0,1,9.7-8.487ZM33.035,21.2V17.664c2.98-4.068,5.166-3.228,9.783-1.454A33.048,33.048,0,0,0,52.6,18.738V21.2c0,4.109-6.361,8.456-9.782,8.456S33.035,25.313,33.035,21.2Zm18.838,11.1-4.6,4.239-1.952-3.927a16.517,16.517,0,0,0,4.668-2.235Zm-11.563.312-1.952,3.927-4.6-4.238,1.881-1.923A16.509,16.509,0,0,0,40.31,32.619Zm-9.236,1.759,6.656,6.139a1.673,1.673,0,0,0,2.632-.485l2.456-4.943,2.456,4.943a1.673,1.673,0,0,0,2.632.485l6.656-6.139c4.315,2.293,5.536,5.323,5.664,13.915H25.409c.128-8.592,1.349-11.622,5.664-13.915Zm51.221,21.23A1.088,1.088,0,0,1,81.208,56.7H50.323a1.673,1.673,0,1,0,0,3.345H75.707L69.852,82.96H15.788L9.933,60.041H35.3a1.673,1.673,0,1,0,0-3.345H4.432a1.1,1.1,0,0,1-1.087-1.087V52.726a1.1,1.1,0,0,1,1.087-1.087H81.208a1.1,1.1,0,0,1,1.087,1.087Z" transform="translate(0 -1)"/><path class="a" d="M247.629,337.324h0a1.673,1.673,0,1,0-1.678-1.673A1.671,1.671,0,0,0,247.634,337.324Z" transform="translate(-204.816 -278.283)"/></g></g></svg>