<svg xmlns="http://www.w3.org/2000/svg" xmlns:xlink="http://www.w3.org/1999/xlink" width="101.977" height="101.976" viewBox="0 0 101.977 101.976"><defs><style>.a{stroke:#fff;stroke-width:2px;fill:url(#a);}</style><linearGradient id="a" x1="0.5" x2="0.5" y2="1" gradientUnits="objectBoundingBox"><stop offset="0" stop-color="#ff4b2b"/><stop offset="1" stop-color="#ff416c"/></linearGradient></defs><path class="a" d="M96.071,92.166H7.81V67.448L30.652,43.9a7.069,7.069,0,0,1,5.057-2.162h.056A7.066,7.066,0,0,1,40.8,43.825l.018.018a14.933,14.933,0,0,0,21.107-.015L81.318,24.41a7.636,7.636,0,0,0,.032-10.73l-5.782-5.86,14.69-.009h0a1.906,1.906,0,0,1,1.905,1.907l-.01,14.907A3.906,3.906,0,0,0,87.6,30.837l1.14,1.175.043.043a6.55,6.55,0,0,0,11.177-4.631l.012-17.7A9.716,9.716,0,0,0,90.26,0h-.006L72.55.01a6.55,6.55,0,0,0-4.641,11.166l7.745,7.85L56.4,38.306a7.121,7.121,0,0,1-10.071,0l-.015-.015a14.932,14.932,0,0,0-21.267.172L7.81,56.23V3.9A3.905,3.905,0,1,0,0,3.9V96.071A3.905,3.905,0,0,0,3.9,99.976H96.071a3.905,3.905,0,1,0,0-7.811Zm0,0" transform="translate(1.001 1)"/></svg>