<svg xmlns="http://www.w3.org/2000/svg" width="86.795" height="77.433" viewBox="0 0 86.795 77.433"><defs><style>.a{fill:#fff;}</style></defs><g transform="translate(0 0)"><path class="a" d="M73.52,30.048a18.672,18.672,0,0,0-25.6-17.338V3.987A3.993,3.993,0,0,0,43.93,0H26.757a1.276,1.276,0,0,0,0,2.552H43.93a1.438,1.438,0,0,1,1.436,1.436v10.7a.371.371,0,0,0,0,.038v6.062a1.437,1.437,0,0,1-1.436,1.436H35.657a2.14,2.14,0,0,0-1.522.63L30.847,26.14,27.56,22.852a2.139,2.139,0,0,0-1.522-.63H17.765a1.437,1.437,0,0,1-1.436-1.436V3.988a1.437,1.437,0,0,1,1.436-1.436h3.859a1.276,1.276,0,1,0,0-2.552H17.765a3.992,3.992,0,0,0-3.988,3.988v16.8a3.993,3.993,0,0,0,3.988,3.988h8.107l3.453,3.453a2.157,2.157,0,0,0,3.045,0l3.453-3.453h1.11a18.761,18.761,0,0,0,.346,11.61H5.245A5.25,5.25,0,0,0,0,41.629V66.213a5.251,5.251,0,0,0,5.245,5.245l12.112,0,5.224,5.224a2.563,2.563,0,0,0,3.62,0l5.229-5.226H43.537a5.251,5.251,0,0,0,5.245-5.245V55.45a1.276,1.276,0,1,0-2.552,0V66.214a2.7,2.7,0,0,1-2.692,2.692H31.43a2.542,2.542,0,0,0-1.81.75L24.387,74.88l-5.225-5.225a2.544,2.544,0,0,0-1.809-.749H5.245a2.7,2.7,0,0,1-2.693-2.692V41.629a2.7,2.7,0,0,1,2.692-2.692H43.537a2.7,2.7,0,0,1,2.692,2.692v8.4a1.276,1.276,0,0,0,2.553,0V47.712A18.683,18.683,0,0,0,73.52,30.048ZM43.537,36.384H40.022a16.169,16.169,0,0,1-.409-11.61H43.93a3.992,3.992,0,0,0,3.988-3.988V15.494a16.119,16.119,0,1,1,6.93,30.673,15.972,15.972,0,0,1-6.065-1.181V41.629a5.251,5.251,0,0,0-5.245-5.245Zm0,0"/><path class="a" d="M365.868,300.363H343.876a3.559,3.559,0,0,0-3.555,3.555v14.12a3.559,3.559,0,0,0,3.555,3.555h6.731l2.843,2.843a2.017,2.017,0,0,0,2.847,0l2.842-2.843h6.731a3.56,3.56,0,0,0,3.555-3.555V303.919a3.56,3.56,0,0,0-3.555-3.556Zm1,17.675a1,1,0,0,1-1,1h-6.954a2,2,0,0,0-1.424.589l-2.619,2.62-2.619-2.619a2,2,0,0,0-1.424-.59h-6.954a1,1,0,0,1-1-1V303.919a1,1,0,0,1,1-1h21.993a1,1,0,0,1,1,1Zm0,0" transform="translate(-282.629 -249.445)"/><path class="a" d="M123.09,270.325l.512-.428.7-.669q.217-.215.662-.763a6.007,6.007,0,0,0,.675-.991,6.836,6.836,0,0,0,.432-1.084,4.337,4.337,0,0,0,.2-1.312,4.087,4.087,0,0,0-1.5-3.239,5.962,5.962,0,0,0-4.015-1.285,5.784,5.784,0,0,0-3.587,1.017,2.789,2.789,0,0,0-1.339,2.142,1.153,1.153,0,0,0,.413.95,1.429,1.429,0,0,0,.921.334,1.029,1.029,0,0,0,.706-.273,3.231,3.231,0,0,0,.52-.583,1.965,1.965,0,0,1,.8-.584,3.484,3.484,0,0,1,1.467-.273,3.122,3.122,0,0,1,2,.6,2.028,2.028,0,0,1,.747,1.681,2.646,2.646,0,0,1-.308,1.23,3.607,3.607,0,0,1-.616.9q-.308.3-.923.834l-.777.634a5.3,5.3,0,0,0-1.606,4.181,1.8,1.8,0,0,0,.281,1.165,1.216,1.216,0,0,0,.95.317q1.338,0,1.338-.964a7.757,7.757,0,0,1,.215-2.088,3.078,3.078,0,0,1,1.124-1.446Zm0,0" transform="translate(-96.199 -216.385)"/><path class="a" d="M134.866,356.09a1.5,1.5,0,0,0-1.2.536,2.023,2.023,0,0,0,0,2.556,1.486,1.486,0,0,0,1.2.549,1.73,1.73,0,0,0,1.285-.549,1.814,1.814,0,0,0-1.285-3.092Zm0,0" transform="translate(-110.625 -295.725)"/><path class="a" d="M313.973,124.063q0,1.018,1.358,1.017a1.724,1.724,0,0,0,.929-.268.838.838,0,0,0,.43-.75q0-1.767.194-5.89t.194-5.889a1.3,1.3,0,0,0-.5-1.071,1.926,1.926,0,0,0-1.248-.4,1.946,1.946,0,0,0-1.241.388,1.3,1.3,0,0,0-.491,1.085q0,1.766.187,5.889T313.973,124.063Zm0,0" transform="translate(-260.436 -92.027)"/><path class="a" d="M314.7,209.992a1.818,1.818,0,0,0,1.328-.549,1.751,1.751,0,0,0,0-2.556,1.941,1.941,0,0,0-2.678,0,1.793,1.793,0,0,0,0,2.57A1.845,1.845,0,0,0,314.7,209.992Zm0,0" transform="translate(-259.781 -171.371)"/><path class="a" d="M135.453,31.52H115.307a1.276,1.276,0,0,0,0,2.552h20.146a1.276,1.276,0,0,0,0-2.552Zm0,0" transform="translate(-94.7 -26.177)"/><path class="a" d="M136.729,63.147a1.276,1.276,0,0,0-1.276-1.276H115.307a1.276,1.276,0,0,0,0,2.552h20.146a1.276,1.276,0,0,0,1.276-1.276Zm0,0" transform="translate(-94.701 -51.383)"/><path class="a" d="M115.308,92.219a1.276,1.276,0,0,0,0,2.553h10.24a1.276,1.276,0,0,0,0-2.553Zm0,0" transform="translate(-94.701 -76.586)"/><path class="a" d="M385.718,356.889a1.331,1.331,0,1,1-1.332-1.331A1.331,1.331,0,0,1,385.718,356.889Zm0,0" transform="translate(-318.119 -295.284)"/><path class="a" d="M419.155,356.889a1.331,1.331,0,1,1-1.332-1.331A1.331,1.331,0,0,1,419.155,356.889Zm0,0" transform="translate(-345.888 -295.284)"/><path class="a" d="M453.358,356.889a1.331,1.331,0,1,1-1.331-1.331A1.331,1.331,0,0,1,453.358,356.889Zm0,0" transform="translate(-374.292 -295.284)"/></g></svg>