<svg xmlns="http://www.w3.org/2000/svg" xmlns:xlink="http://www.w3.org/1999/xlink" width="109.062" height="103.254" viewBox="0 0 109.062 103.254"><defs><style>.a{stroke:#ff435e;stroke-width:2px;fill:url(#a);}</style><linearGradient id="a" x1="0.5" x2="0.5" y2="1" gradientUnits="objectBoundingBox"><stop offset="0" stop-color="#ff4b2b"/><stop offset="1" stop-color="#ff416c"/></linearGradient></defs><g transform="translate(1 1)"><path class="a" d="M143.95,322.866a10.206,10.206,0,1,0-10.205,10.205A10.206,10.206,0,0,0,143.95,322.866Zm-16.791,0a6.586,6.586,0,1,1,6.586,6.585A6.586,6.586,0,0,1,127.158,322.866Zm0,0" transform="translate(-91.596 -231.818)"/><path class="a" d="M279.9,333.072A10.206,10.206,0,1,0,269.7,322.867,10.2,10.2,0,0,0,279.9,333.072Zm0-16.791a6.586,6.586,0,1,1-6.585,6.586A6.586,6.586,0,0,1,279.9,316.28Zm0,0" transform="translate(-199.965 -231.818)"/><path class="a" d="M1.809,3.62H12.85a7.341,7.341,0,0,1,7.284,6.223l8.74,55.206a10.944,10.944,0,0,0,10.86,9.276H93.755a1.81,1.81,0,1,0,0-3.62H39.733a7.342,7.342,0,0,1-7.284-6.223L30.963,55.1H86.291A11,11,0,0,0,96.68,47.7l10.265-29.626a1.809,1.809,0,0,0-1.71-2.4H24.721l-1.012-6.4A10.944,10.944,0,0,0,12.85,0H1.809a1.81,1.81,0,0,0,0,3.62ZM102.691,19.293,93.26,46.516a7.379,7.379,0,0,1-6.969,4.96H30.39l-5.1-32.184Zm0,0" transform="translate(0.001 0)"/></g></svg>