<svg xmlns="http://www.w3.org/2000/svg" width="85" height="84.833" viewBox="0 0 85 84.833"><defs><style>.a{fill:#fff;}</style></defs><g transform="translate(0 -0.505)"><circle class="a" cx="1.677" cy="1.677" r="1.677" transform="translate(52.059 41.663)"/><path class="a" d="M17.408,24.405a1.245,1.245,0,0,0,1.245-1.245V9.7H93.306V36.46a1.245,1.245,0,0,0,2.49,0v-28a1.245,1.245,0,0,0-1.245-1.245H59.74V1.75A1.245,1.245,0,0,0,58.5.505H53.464A1.245,1.245,0,0,0,52.219,1.75V7.213H17.408a1.245,1.245,0,0,0-1.245,1.245v14.7a1.245,1.245,0,0,0,1.245,1.245ZM54.709,3H57.25V7.213H54.709Z" transform="translate(-13.48)"/><path class="a" d="M83.755,196.641H82.317V179.047a1.245,1.245,0,0,0-2.49,0v17.594H5.174v-30.9a1.245,1.245,0,1,0-2.49,0v30.9H1.245A1.245,1.245,0,0,0,0,197.886v5.031a1.245,1.245,0,0,0,1.245,1.245H9.053a1.245,1.245,0,1,0,0-2.49H2.49v-2.541H82.51v2.541H14.872a1.245,1.245,0,1,0,0,2.49h9.536L19.67,220.515a1.245,1.245,0,0,0,1.2,1.592H25.9a1.245,1.245,0,0,0,1.2-.9l4.938-17.045h6.708v16.7a1.245,1.245,0,0,0,1.245,1.245h5.031a1.245,1.245,0,0,0,1.245-1.245v-16.7h6.708l4.938,17.045a1.245,1.245,0,0,0,1.2.9h5.034a1.246,1.246,0,0,0,1.167-1.681l-4.712-16.264H83.755A1.245,1.245,0,0,0,85,202.917v-5.031A1.245,1.245,0,0,0,83.755,196.641ZM24.962,219.616H22.523L27,204.162h2.438Zm18.809,0H41.229V204.162H43.77Zm18.706,0H60.038l-4.477-15.454H58Z" transform="translate(0 -136.769)"/><path class="a" d="M90.276,76.5a1.245,1.245,0,0,0-1.245-1.245H63.875A1.245,1.245,0,0,0,62.63,76.5v16.77a1.245,1.245,0,0,0,1.245,1.245H89.03a1.245,1.245,0,0,0,1.245-1.245Zm-2.49,15.525H65.12V77.747H87.785Z" transform="translate(-52.232 -62.342)"/><path class="a" d="M130.546,108.052H139.6a1.245,1.245,0,0,0,0-2.49h-9.056a1.245,1.245,0,0,0,0,2.49Z" transform="translate(-107.835 -87.616)"/><path class="a" d="M94.18,108.052h1.677a1.245,1.245,0,0,0,0-2.49H94.18a1.245,1.245,0,0,0,0,2.49Z" transform="translate(-77.506 -87.616)"/><path class="a" d="M130.546,148.458H139.6a1.245,1.245,0,0,0,0-2.49h-9.056a1.245,1.245,0,1,0,0,2.49Z" transform="translate(-107.835 -121.314)"/><path class="a" d="M94.18,148.458h1.677a1.245,1.245,0,1,0,0-2.49H94.18a1.245,1.245,0,1,0,0,2.49Z" transform="translate(-77.506 -121.314)"/><path class="a" d="M89.03,222.74H63.875a1.245,1.245,0,0,0-1.245,1.245v16.77A1.245,1.245,0,0,0,63.875,242H89.03a1.245,1.245,0,0,0,1.245-1.245v-16.77A1.245,1.245,0,0,0,89.03,222.74Zm-1.245,16.77H65.12V225.23H87.785Z" transform="translate(-52.232 -185.341)"/><path class="a" d="M310.492,76.5a1.245,1.245,0,0,0-1.245-1.245H284.091a1.245,1.245,0,0,0-1.245,1.245v16.77a1.245,1.245,0,0,0,1.245,1.245h25.155a1.245,1.245,0,0,0,1.245-1.245ZM308,92.027H285.336V77.747H308Z" transform="translate(-235.889 -62.342)"/><path class="a" d="M309.246,222.74H284.091a1.245,1.245,0,0,0-1.245,1.245v16.77A1.245,1.245,0,0,0,284.091,242h25.155a1.245,1.245,0,0,0,1.245-1.245v-16.77A1.245,1.245,0,0,0,309.246,222.74ZM308,225.23v11.217l-4.578-7.257a1.245,1.245,0,0,0-1.985-.161l-4.279,4.831-2.421-2.663a1.245,1.245,0,0,0-1.753-.089l-7.65,6.859V225.23Zm-1.013,14.28H287.345l6.383-5.723,2.522,2.774a1.246,1.246,0,0,0,.921.408h.008a1.245,1.245,0,0,0,.924-.42l4.1-4.628Z" transform="translate(-235.889 -185.341)"/></g></svg>