<svg xmlns="http://www.w3.org/2000/svg" xmlns:xlink="http://www.w3.org/1999/xlink" width="102.99" height="102.99" viewBox="0 0 102.99 102.99"><defs><style>.a{stroke:#fff;stroke-width:3px;fill:url(#a);}</style><linearGradient id="a" x1="0.5" x2="0.5" y2="1" gradientUnits="objectBoundingBox"><stop offset="0" stop-color="#ff4b2b"/><stop offset="1" stop-color="#ff416c"/></linearGradient></defs><path class="a" d="M38.272,49.99A11.729,11.729,0,0,0,49.987,61.706,11.567,11.567,0,0,0,60.8,54.237a3.905,3.905,0,1,1,7.279,2.832,19.328,19.328,0,0,1-18.09,12.447,19.566,19.566,0,0,1-6.345-38.06,3.906,3.906,0,0,1,2.538,7.387A11.764,11.764,0,0,0,38.272,49.99ZM56.283,24.3a3.905,3.905,0,1,0,1.858-7.586A34.224,34.224,0,1,0,84.159,49.99a34.348,34.348,0,0,0-.887-7.933,3.905,3.905,0,0,0-7.6,1.808A26.387,26.387,0,1,1,49.988,23.629a26.363,26.363,0,0,1,6.3.669ZM91.842,29.93a3.906,3.906,0,0,0-2.288,5.027A42.7,42.7,0,0,1,92.165,49.99,42.177,42.177,0,1,1,49.988,7.813a41.688,41.688,0,0,1,15.18,2.878A3.905,3.905,0,1,0,68,3.412,49.939,49.939,0,0,0,0,49.99,49.988,49.988,0,0,0,85.335,85.337,49.66,49.66,0,0,0,99.976,49.99a50.493,50.493,0,0,0-3.107-17.772,3.906,3.906,0,0,0-5.027-2.288Zm-44.615,17.3a3.905,3.905,0,1,0,5.523,5.523L77.52,27.981,97.189,22.1a3.905,3.905,0,0,0-2.238-7.483l-5.8,1.735,5.776-5.776A3.905,3.905,0,0,0,89.4,5.052l-6.079,6.079,1.84-6.094a3.905,3.905,0,1,0-7.477-2.257L71.638,22.818Zm0,0" transform="translate(1.5 1.512)"/></svg>